<?xml version="1.0" encoding="iso-8859-1"?>
<!-- Generator: Adobe Illustrator 19.0.0, SVG Export Plug-In . SVG Version: 6.00 Build 0)  -->
<svg version="1.1" id="Capa_1" xmlns="http://www.w3.org/2000/svg" xmlns:xlink="http://www.w3.org/1999/xlink" x="0px" y="0px"
	 viewBox="0 0 512 512" style="enable-background:new 0 0 512 512;" xml:space="preserve">
<path style="fill:#FD4E26;" d="M481.968,270.998v225.968c0,8.398-6.598,14.998-14.998,14.998H45.03c-8.4,0-14.998-6.6-14.998-14.998
	V270.998H481.968z"/>
<path style="fill:#FF2121;" d="M481.968,270.998v225.968c0,8.398-6.598,14.998-14.998,14.998H256V270.998H481.968z"/>
<path style="fill:#BF6015;" d="M375.983,331.989H136.017c-8.4,0-14.998,6.598-14.998,14.998v164.976h269.961V346.987
	C390.981,338.587,384.382,331.989,375.983,331.989z"/>
<g>
	<path style="fill:#994C10;" d="M390.981,346.987v164.976H256V331.989h119.983C384.382,331.989,390.981,338.587,390.981,346.987z"/>
	<path style="fill:#994C10;" d="M151.015,361.985v119.983h209.97V361.985H151.015z"/>
</g>
<rect x="256.003" y="361.988" style="fill:#713708;" width="104.985" height="119.983"/>
<path style="fill:#57555C;" d="M511.063,281.195l-59.991-179.974c-1.199-3.599-3.897-6.898-7.499-8.698L262.598,1.536
	c-2.098-0.901-4.198-1.5-6.598-1.5s-4.5,0.599-6.598,1.5L68.428,92.523c-3.601,1.8-6.3,5.098-7.499,8.698L0.937,281.195
	c-1.802,4.5-0.901,9.599,1.8,13.498c2.999,3.899,7.499,6.3,12.297,6.3h481.931c4.798,0,9.299-2.401,12.297-6.3
	C511.964,290.794,512.863,285.695,511.063,281.195z"/>
<path style="fill:#3C3A41;" d="M509.263,294.693c-2.999,3.899-7.499,6.3-12.297,6.3H256V0.036c2.401,0,4.5,0.599,6.598,1.5
	l180.974,90.987c3.601,1.8,6.3,5.098,7.499,8.698l59.991,179.974C512.863,285.695,511.964,290.794,509.263,294.693z"/>
<path style="fill:#FEDBAB;" d="M315.992,91.023H196.009c-8.4,0-14.998,6.598-14.998,14.998v119.983
	c0,8.398,6.598,14.998,14.998,14.998h119.983c8.4,0,14.998-6.6,14.998-14.998V106.021C330.989,97.621,324.39,91.023,315.992,91.023z
	"/>
<path style="fill:#FEC478;" d="M330.989,106.021v119.983c0,8.398-6.598,14.998-14.998,14.998H256V91.023h59.991
	C324.39,91.023,330.989,97.621,330.989,106.021z"/>
<path style="fill:#BF6015;" d="M211.007,121.019v89.987h89.987v-89.987H211.007z"/>
<rect x="256.003" y="121.022" style="fill:#994C10;" width="44.994" height="89.987"/>
<path style="fill:#BF6015;" d="M387.681,356.286l-23.398-18.597l-48.293,60.291l-48.293-60.291
	c-3.001-3.599-7.199-5.399-11.698-5.399c-4.199,0-8.698,1.5-11.698,5.399l-48.293,60.291l-48.293-60.291l-23.398,18.597
	l52.493,65.691l-52.493,65.691l23.398,18.597l48.293-60.291l48.293,60.291c2.401,2.999,7.199,5.699,11.698,5.699
	c4.798,0,9.299-2.701,11.698-5.699l48.293-60.291l48.293,60.291l23.398-18.597l-52.493-65.691L387.681,356.286z M241.002,454.072
	l-25.796-32.095l25.796-32.095V454.072z M270.998,454.072v-64.191l25.796,32.095L270.998,454.072z"/>
<polygon style="fill:#FEDBAB;" points="277.297,166.013 326.489,215.504 305.493,236.502 256,187.308 206.506,236.502 
	185.51,215.504 234.702,166.013 185.51,116.519 206.506,95.521 256,144.715 305.493,95.521 326.489,116.519 "/>
<polygon style="fill:#FEC478;" points="277.297,166.013 326.489,215.504 305.493,236.502 256,187.308 256,144.715 305.493,95.521 
	326.489,116.519 "/>
<path style="fill:#FCBF29;" d="M481.968,511.963L481.968,511.963c-16.567,0-29.996-13.429-29.996-29.996v-59.991
	c0-16.567,13.429-29.996,29.996-29.996l0,0c16.567,0,29.996,13.429,29.996,29.996v59.991
	C511.964,498.533,498.534,511.963,481.968,511.963z"/>
<path style="fill:#994C10;" d="M387.681,356.286l-23.398-18.597l-48.293,60.291l-48.293-60.291
	c-3.001-3.599-7.199-5.399-11.698-5.399v179.674c4.798,0,9.299-2.701,11.698-5.699l48.293-60.291l48.293,60.291l23.398-18.597
	l-52.493-65.691L387.681,356.286z M270.998,454.072v-64.191l25.796,32.095L270.998,454.072z"/>
<g>
</g>
<g>
</g>
<g>
</g>
<g>
</g>
<g>
</g>
<g>
</g>
<g>
</g>
<g>
</g>
<g>
</g>
<g>
</g>
<g>
</g>
<g>
</g>
<g>
</g>
<g>
</g>
<g>
</g>
</svg>
